<?xml version="1.0" encoding="UTF-8"?>
<svg width="32" height="32" viewBox="0 0 32 32" fill="none" xmlns="http://www.w3.org/2000/svg">
  <path d="M16 4C11.582 4 8 7.582 8 12C8 14.387 9.067 16.618 10.858 18.142C11.686 18.86 12.5 19.857 12.5 21V24C12.5 24.827 13.173 25.5 14 25.5H18C18.827 25.5 19.5 24.827 19.5 24V21C19.5 19.857 20.314 18.86 21.142 18.142C22.933 16.618 24 14.387 24 12C24 7.582 20.418 4 16 4Z" 
    fill="white" 
    stroke="white" 
    stroke-width="1.5" 
    stroke-linecap="round" 
    stroke-linejoin="round"/>
  <path d="M14 28H18" 
    stroke="white" 
    stroke-width="1.5" 
    stroke-linecap="round" 
    stroke-linejoin="round"/>
  <path d="M15 22H17" 
    stroke="white" 
    stroke-width="1.5" 
    stroke-linecap="round" 
    stroke-linejoin="round"/>
</svg>